# xmcd
#
# Track frame offsets:
#	150
#	10573
#	24595
#	38637
#	55001
#	66764
#	82367
#	98372
#	114884
#	136931
#	147905
#	171608
#	185591
#	204084
#	217325
#	229022
#	245395
#	261559
#	278842
#	292843
#	310839
#	328523
#	342385
#
# Disc length: 4769 seconds
#
# Revision: 1
# Processed by: cddbd v1.5.2PL0 Copyright (c) Steve Scherf et al.
# Submitted via: audiograbber 1.83.01
#
DISCID=4d129f17
DTITLE=Various Artist - 100 Greatest Country Duets #4
DYEAR=2008
DGENRE=Country
TTITLE0=Brooks, Garth and Wariner, Steve - #75 Longneck Bottle
TTITLE1=Tritt, Travis and Stuart, Marty - #74 Honky Tonkin's What I Do Best
TTITLE2=Brown, Jim Ed and Cornelius, Helen - #73 I Don't Want To Have To Marry Yo
TTITLE2=u
TTITLE3=Jones, George and Costello, Elvis - #72 Stranger In The House
TTITLE4=Brooks, Garth and LeDeux, Chris - #71 Whatcha Gonna Do With A Cowboy
TTITLE5=Murray, Anne and Loggins, Dave - #70 Nobody Love Me Like You Do
TTITLE6=Jones, George and Jackson, Alan - #69 Good Year For The Roses, A
TTITLE7=Haggard, Merle and Fricke, Janie - #68 Place To Fall Apart, A
TTITLE8=Cochran, Anita and Wariner, Steve - #67 What If I Said
TTITLE9=Joes, George and Wynette, Tammy - #66 Near You
TTITLE10=Twitty, Conway and Moore, Sam - #65 Rainy Night In Georgia
TTITLE11=Nelson, Willie and Russell, Leon - #64 Heartbreak Hotel
TTITLE12=Shenandoah and Krauss, Alison - #63 Somewhere In The Vicinity Of The Hea
TTITLE12=rt
TTITLE13=Butler, Carl and Butler, Pearl - #62 Don't Let Me Cross Over
TTITLE14=Lynn, Lorette and Tubb, Ernest - #61 Sweet Thang
TTITLE15=Conely, Earl Thomas and Harris, Emmylou - #60 We Believe In Happy Ending
TTITLE15=s
TTITLE16=Tritt, Travis and Loveless, Patty - #59 Out Of Control Raging Fire
TTITLE17=Jones, George and Taylor, James - #58 Bartender's Blues
TTITLE18=West, Dottie and Rogers, Kenny - #57 What Are We Doing In Love
TTITLE19=Krauss, Alison and Welch, Gillian - #56 I'll Fly Away
TTITLE20=Jackson, Alan and Buffet, Jimmy - #55 It's Five O'Clock Somewhere
TTITLE21=Parton, Dolly and Wagoner, Porter - #54 Daddy Was An Old Time Preacher M
TTITLE21=an
TTITLE22=Parton, Dolly and Van Shelton, Ricky - #53 Rockin' Years
EXTD=
EXTT0=
EXTT1=
EXTT2=
EXTT3=
EXTT4=
EXTT5=
EXTT6=
EXTT7=
EXTT8=
EXTT9=
EXTT10=
EXTT11=
EXTT12=
EXTT13=
EXTT14=
EXTT15=
EXTT16=
EXTT17=
EXTT18=
EXTT19=
EXTT20=
EXTT21=
EXTT22=
PLAYORDER=
